<svg width="50" height="50" viewBox="0 0 50 50" fill="none" xmlns="http://www.w3.org/2000/svg">
<rect width="50" height="50" rx="20" fill="#F5F5F5"/>
<path d="M25.7617 10.5625H30.6445V29.5664C30.6445 31.7279 30.1758 33.5378 29.2383 34.9961C28.3008 36.4544 27.0247 37.5547 25.4102 38.2969C23.8086 39.026 22.0182 39.3906 20.0391 39.3906C17.9948 39.3906 16.1719 39.026 14.5703 38.2969C12.9688 37.5547 11.7057 36.4544 10.7812 34.9961C9.86979 33.5378 9.41406 31.7279 9.41406 29.5664V10.5625H14.2969V29.5664C14.2969 30.9336 14.5312 32.0599 15 32.9453C15.4688 33.8177 16.1328 34.4622 16.9922 34.8789C17.8516 35.2956 18.8672 35.5039 20.0391 35.5039C21.2109 35.5039 22.2201 35.2956 23.0664 34.8789C23.9258 34.4622 24.5898 33.8177 25.0586 32.9453C25.5273 32.0599 25.7617 30.9336 25.7617 29.5664V10.5625Z" fill="#0080F6"/>
<path d="M32.2031 14.3516L23.707 39H18.5703L29.2734 10.5625H32.5547L32.2031 14.3516ZM39.3125 39L30.7969 14.3516L30.4258 10.5625H33.7266L44.4688 39H39.3125ZM38.9023 28.4531V32.3398H23.4336V28.4531H38.9023Z" fill="#FFAE00"/>
</svg>
